<svg version="1.1" xmlns="http://www.w3.org/2000/svg" xmlns:xlink="http://www.w3.org/1999/xlink" width="94.05061" height="43.07612" viewBox="0,0,94.05061,43.07612"><g transform="translate(-185.53852,-152.37726)"><g data-paper-data="{&quot;isPaintingLayer&quot;:true}" fill-rule="nonzero" stroke="none" stroke-width="0.5" stroke-linecap="butt" stroke-linejoin="miter" stroke-miterlimit="10" stroke-dasharray="" stroke-dashoffset="0" style="mix-blend-mode: normal"><path d="" fill="#ffab19"/><path d="" fill="#ffab19"/><path d="" fill="#ffab19"/><path d="" fill="#ffab19"/><path d="" fill="#000000"/><path d="" fill="#000000"/><path d="" fill="#000000"/><path d="" fill="#ffc500"/><path d="" fill="#000000"/><path d="" fill="#000000"/><path d="" fill="#000000"/><path d="M187.13947,180.19937c0.04408,-0.00881 0.08737,-0.01644 0.12987,-0.02293c0.10611,-0.20813 0.20481,-0.33376 0.20481,-0.33376c2.40157,-3.05639 4.69419,-6.82495 7.52919,-9.49722c2.8525,-2.68876 5.35076,-3.31336 8.6007,-5.26873c4.01235,-2.41409 8.25115,-5.07029 12.7784,-6.47278c2.8471,-0.882 5.71616,-1.00191 8.61367,-1.55957c4.13726,-0.79626 6.75686,-1.01843 10.795,0.58356c4.70439,2.60709 8.95265,4.765 12.55643,8.93706c0.70667,0.81812 1.36118,1.67435 1.98277,2.55458c1.90134,-3.96392 4.04913,-7.74411 7.2224,-10.21197c4.99849,-3.63327 8.3943,-7.12181 14.97651,-6.44575c1.21988,0.12529 2.55888,0.05105 3.61728,0.67037c3.78792,2.21646 2.9908,7.15387 2.99192,10.84723c0.00263,8.62501 1.998,18.62614 -2.42919,26.40848c-0.88347,0.67988 -1.63977,1.56914 -2.65041,2.03963c-5.21122,2.42597 -10.27203,-0.75449 -13.95315,-4.12159c-3.62567,-3.31638 -6.29396,-6.89881 -9.23713,-10.66407c-0.72524,1.37285 -1.48687,2.72661 -2.3232,4.04291c-6.18889,9.74078 -20.07807,12.7343 -30.79468,13.50976c-8.78623,0.54676 -16.55674,0.62997 -24.31124,-3.95373c-3.23607,-1.91285 -5.90821,-3.73324 -7.51892,-7.18583l-0.34998,-1.50225c0,0 -0.39223,-1.96116 1.56893,-2.3534z" fill="#ff8226"/><path d="M213.04452,191.87451c0.29713,0.25957 1.3727,1.34887 0.32862,2.74098c-1.2,1.6 -2.8,0.4 -2.8,0.4l-1.65755,-2.4304c0.44623,-4.78442 2.57394,-8.51509 2.3747,-13.3641c-0.23049,-5.60946 -6.26913,-10.06987 -3.22846,-15.9688c0.41596,-0.80696 1.24282,-1.32373 1.86423,-1.98559c0,0 1.41421,-1.41422 2.82842,0c1.41422,1.41422 0,2.82843 0,2.82843c-3.95482,3.54317 1.51793,8.36479 2.28092,12.27468c0.44107,2.26021 0.58073,5.56529 0.22701,7.84273c-0.42135,2.71287 -1.72809,4.96114 -2.21788,7.66208z" fill="#ffe2cd"/><path d="M225.44959,194.29444c-1.96116,-0.39223 -1.56893,-2.3534 -1.56893,-2.3534l0.32064,-1.43276c0.84587,-2.11467 2.70693,-5.09236 2.46657,-7.4768c-0.18025,-1.7882 -1.85987,-3.12295 -2.84696,-4.41685c-1.01253,-1.32725 -1.5958,-2.96948 -2.71421,-4.20882c-0.6321,-0.70045 -1.5857,-1.06347 -2.20358,-1.7765c-3.1863,-3.67703 -4.20304,-10.07817 -0.82947,-14.09485c1.0069,-1.19885 3.31588,-1.81049 4.75484,-2.29628c0,0 1.89737,-0.63246 2.52982,1.26491c0.63245,1.89737 -1.26491,2.52982 -1.26491,2.52982c-2.77182,0.90982 -5.118,3.04522 -4.10551,6.48255c0.73138,2.48296 2.52893,3.45378 4.09578,5.21872c1.81392,2.04325 4.59345,5.77065 5.7319,8.27551c1.90491,4.19127 -0.34285,8.09036 -1.90037,11.98416l-0.11223,0.73166c0,0 -0.39223,1.96116 -2.35339,1.56893z" fill="#ffe2cd"/><path d="M235.31321,186.27292c0,-0.64183 0.20597,-1.07769 0.48573,-1.37367c0.80504,-3.07825 2.28082,-6.18904 1.35027,-9.45981c-0.31191,-1.09633 -2.2241,-2.27187 -2.69527,-2.8502c-2.62169,-3.21798 -5.60054,-9.33007 -2.84306,-13.28612c0.5242,-0.75205 1.50766,-1.04328 2.26149,-1.56492c0,0 1.696,-1.06 2.756,0.636c1.06,1.696 -0.636,2.756 -0.636,2.756c-4.40688,2.19868 1.77661,8.56414 3.49809,10.64927c0.59217,0.71726 1.15601,1.50165 1.44984,2.38415c1.45326,4.36491 -0.64697,8.38554 -1.44947,12.50154l-2.1776,1.60777c0,0 -2,0 -2,-2z" fill="#ffe2cd"/><path d="M258.34868,180.44219c-1.96116,-0.39223 -1.56893,-2.35339 -1.56893,-2.35339l0.39405,-1.77218c-0.58916,-2.98693 -4.04377,-5.27942 -3.89194,-8.56772c0.04755,-1.02998 0.88659,-1.86184 1.32989,-2.79275c0,0 0.97129,-1.74831 2.7196,-0.77703c1.74831,0.97128 0.77703,2.7196 0.77703,2.7196c-1.72143,2.27562 1.54134,4.2415 2.47149,6.46717c0.38687,0.92571 0.39596,1.96715 0.59393,2.95073l-0.47172,2.55664c0,0 -0.39223,1.96116 -2.35339,1.56893z" fill="#ffe2cd"/><path d="M268.91366,187.6236c-2,0 -2,-2 -2,-2l0.00993,-1.49765c0.41695,-4.11971 0.28535,-8.24469 -0.60028,-12.30537c-0.69146,-3.17043 -2.65705,-5.34086 -3.08182,-8.75225c-0.30039,-2.41242 0.51634,-3.36211 1.50246,-5.39433c0,0 0.89443,-1.78885 2.68328,-0.89442c1.78886,0.89443 0.89443,2.68328 0.89443,2.68328c-2.28683,4.39585 0.91353,7.09479 1.8837,11.39351c1.01574,4.50065 1.15047,9.09621 0.69837,13.6676l0.00993,1.09964c0,0 0,2 -2,2z" fill="#ffe2cd"/><path d="M193.32359,176.96594c0,-1.10457 0.89543,-2 2,-2c1.10457,0 2,0.89543 2,2c0,1.10457 -0.89543,2 -2,2c-1.10457,0 -2,-0.89543 -2,-2z" fill="#000000"/><path d="M196.29399,192.98977c-0.22361,-0.1118 -0.1118,-0.33541 -0.1118,-0.33541l0.19019,-0.38039c0.00746,-1.14341 0.29577,-2.76786 -0.2099,-3.7792c0,-2.27732 -5.98296,-1.51215 -7.15536,-0.31354c0,0 -0.17678,0.17678 -0.35355,0c-0.17678,-0.17678 0,-0.35355 0,-0.35355c1.3994,-1.37428 7.99554,-2.25769 7.99554,0.55222c0.52389,1.04778 0.22762,2.73325 0.22318,3.91183c0.00413,0.03699 -0.00082,0.07176 -0.00751,0.09881c-0.00614,0.0273 -0.01733,0.06077 -0.03771,0.09212l-0.19766,0.39532c0,0 -0.1118,0.22361 -0.33541,0.1118z" fill="#000000"/></g></g></svg>