<svg version="1.1" xmlns="http://www.w3.org/2000/svg" xmlns:xlink="http://www.w3.org/1999/xlink" width="516.6945" height="387.7403" viewBox="0,0,516.6945,387.7403"><g transform="translate(19.75,13.437)"><g data-paper-data="{&quot;isPaintingLayer&quot;:true}" fill-rule="nonzero" stroke="none" stroke-width="0.5" stroke-linecap="butt" stroke-linejoin="miter" stroke-miterlimit="10" stroke-dasharray="" stroke-dashoffset="0" style="mix-blend-mode: normal"><path d="M-3.5,4.49999c0,-2.5 2.5,-2.5 2.5,-2.5h6c0.81971,0 1.54728,0.39451 2.00319,1.00401c2.74841,0.00578 7.29093,0.01679 7.34291,0.02784c2.42873,0.51601 6.03837,0.28225 6.98926,2.5759c0.91166,2.19901 -2.11068,4.27091 -3.29451,6.33619c-2.22232,3.87705 -5.87378,7.37125 -7.69776,11.42781c-0.3402,0.75662 -0.02721,1.67571 -0.24222,2.47696c-0.27975,1.04249 -1.17612,1.9186 -1.22668,2.9968c-0.02198,0.4688 0.6609,-0.78133 1.1258,-0.84549c3.30203,-0.45575 6.66667,0 10,0c9.33333,0 18.66667,0 28,0c0,0 2.5,0 2.5,2.5c0,2.5 -2.5,2.5 -2.5,2.5c-11,0 -22,0 -33,0c-0.77735,0 -9.16724,0.28485 -9.87419,-0.84549c-1.22419,-1.95736 -0.10266,-4.62025 0.01368,-6.92598c0.25117,-4.97804 3.67089,-8.4519 6.3274,-12.43578c0.83062,-1.24565 1.45404,-2.65795 2.49227,-3.73667c0.73418,-0.76281 2.81695,-0.61098 2.7055,-1.66382c-0.10116,-0.95561 -1.85876,0.53677 -2.81655,0.61474c-0.18335,0.01492 -8.27603,-0.00576 -8.85009,-0.00699h-2.998c-0.81791,0 -1.54408,-0.39278 -2.00018,-1h-0.99981c0,0 -2.5,0 -2.5,-2.5z" fill="#00fffc"/><path d="M6.18719,-10.68719c1.52309,1.52309 2.2963,3.04618 2.59654,4.47697c14.14477,0.18112 28.45781,0.88138 42.49457,-0.00997c2.02351,-0.1285 3.97903,-0.8364 6,-1c6.46021,-0.52295 13.22655,-0.02982 19.72171,-0.02982c14.33334,0 28.66666,0 43,0c34.48813,0 69.12691,-0.96937 103.59841,0.11299c4.71746,-1.57249 9.48175,-1.11299 14.40159,-1.11299c8.33334,0 16.66666,0 25,0c28,0 56,0 84,0c26.66667,0 53.33333,0 80,0c12,0 24,0 36,0c5.68397,0 11.56466,-0.77801 16.84433,1.88974c9.9924,5.04904 10.04596,14.13215 12.58203,23.50253c0.53124,1.96286 1.72064,3.71889 2.16576,5.70305c0.19178,0.85487 0.15788,6.19362 0.15788,7.65469c0,11.65529 1.07617,24.05273 -1.11298,35.4016c-0.65843,3.4134 0.11298,8.11781 0.11298,11.59841c0,9.33334 0,18.66666 0,28c-0.06572,5.08166 -0.77797,9.84216 -2.42444,14.6921c-0.46346,1.3652 -1.46481,2.54612 -1.73344,3.96259c-0.45631,2.40611 0.15788,4.89631 0.15788,7.34531c0,4.90128 -0.67891,10.32056 -0.04258,15.1378c0.44517,3.37007 1.57437,6.62741 2,10c0.36039,2.85564 0.0184,5.81773 0.74579,8.60259c1.19576,4.57806 2.77352,8.4358 3.23123,13.19051c0.6972,7.24249 0.06556,14.77762 0.06556,22.06911c0,23.2697 1.54609,47.14593 -2.06556,70.0691c-0.77553,4.92232 0.02887,9.76363 -0.97702,14.7931c0.06092,4.48919 0.81824,10.20534 -0.62347,14.48627c-0.41034,1.21843 -1.77288,1.88217 -2.4697,2.96263c-0.73901,1.14589 0.25266,2.74649 0.02276,4.09048c-0.43308,2.53193 -1.66222,4.90586 -1.9296,7.46061c-0.30739,2.93713 0.27123,5.91766 0.01277,8.8595c-0.17745,2.01981 -0.78913,3.98341 -1,6c-0.3487,3.33481 0.02981,6.91847 0.02981,10.2783c0,1.66505 -0.78536,3.41852 -0.23407,4.98966c1.41856,4.04274 4.83693,6.07249 4.23407,11.01034c-1.28564,10.53015 -7.11854,11.64087 -15.6809,13.68444c-29.3508,0.31705 -58.71661,0.06556 -88.0691,0.06556c-38,0 -76,0 -114,0c-16,0 -32,0 -48,0c-8.71245,0 -17.71483,-0.70654 -26.37972,-0.02202c-2.3497,0.18563 -4.64959,0.82364 -7,1c-7.77429,0.58335 -15.8202,0.02202 -23.62028,0.02202c-31.66666,0 -63.33334,0 -95,0c-8.66666,0 -17.33333,0 -26,0c-0.24439,0 -10.291,0.02587 -11.0691,-0.06556c-1.36498,-0.16037 -2.63795,-0.81637 -4,-1c-9.27923,-1.25105 -18.91752,1.86062 -27.94052,-1.46832c-1.24793,-0.46041 -2.35546,-1.29802 -3.64506,-1.624c-0.78083,-0.19738 -1.65275,0.35408 -2.41441,0.09232c-3.38157,-1.16215 -7.52058,-1.56777 -9.82769,-4.29958c-4.63265,-5.48545 -0.67245,-10.06134 -0.8532,-15.38486c0,-23 0,-46 0,-69c0,-7.19401 -0.04673,-14.00937 1.06556,-21.0691c0.96777,-6.14246 -0.72967,-12.78975 0,-19c0.16038,-1.36498 0.85698,-2.63309 1,-4c0.57125,-5.45971 -0.06556,-11.42579 -0.06556,-16.93089c0,-2.53676 0.66002,-7.76252 0.11299,-10.59841c-0.53507,-2.77387 -1.05391,-5.57721 -1.11299,-8.40159c0,-6.33334 0,-12.66666 0,-19c0,-1.92899 0.44692,-3.89171 0.08457,-5.78636c-1.22421,-6.4013 -3.36959,-10.84915 -4.06256,-17.59336c-0.92425,-8.99513 -0.02201,-18.56838 -0.02201,-27.62028c0,-1.97709 0.32515,-3.97093 0.06556,-5.9309c-0.50901,-3.84303 -1.50021,-7.6105 -2.04354,-11.44882c-0.03948,-11.87334 -0.02201,-23.74687 -0.02201,-35.62028c0,-5.6286 0.85923,-12.04713 0.11298,-17.5984c-0.14044,-1.04469 -0.86157,-1.95504 -1,-3c-0.64466,-4.8663 -0.11298,-10.51233 -0.11298,-15.40159c0,-7.33333 0,-14.66667 0,-22c0.07794,-4.8373 -0.25533,-5.98924 2.13575,-11.31111c0.46551,-1.0361 1.72763,-1.5301 2.30939,-2.50568c1.41576,-2.37417 1.34396,-5.47301 2.86167,-7.78335c1.1452,-1.74328 2.83734,-3.05803 4.25601,-4.58704l1,-1c0,0 6.18719,-6.18718 12.37437,0z" fill="#00fffc"/><path d="M178.93917,369.25067c-40.64639,0.00137 -81.29278,0.00401 -121.93917,-0.00067c-12.64391,-0.00146 -25.25545,-0.72564 -37.88783,-1.2639c-5.76454,-0.24563 -12.07499,1.72286 -17.29402,-0.7361h-2.81815c-3.73441,0 -6.92242,-2.33944 -8.17841,-5.63272c-1.0049,-0.61068 -1.87814,-1.37927 -2.66123,-2.2543l-1.90393,-0.95196c-2.95965,-1.40301 -5.00643,-4.41799 -5.00643,-7.91101c0,-2.29988 0.88731,-4.39251 2.33828,-5.95425c-1.7923,-1.23582 -3.33828,-3.3678 -3.33828,-7.04575c0,-8.75 8.75,-8.75 8.75,-8.75c74,0 148,0 222,0c11.76558,0 23.74197,-0.66719 35.48388,0.01339c3.0134,0.17466 5.98691,0.82001 9,1c17.36582,1.03737 35.11556,-0.01339 52.51612,-0.01339c33.66667,0 67.33333,0 101,0c19.66667,0 39.33333,0 59,0c4.21073,0 8.03761,-0.28728 12.00963,1.53388c3.02893,1.38876 6.93042,1.97603 8.80666,4.72971c3.9309,5.76922 3.98084,9.72734 2.46501,13.64817c0.78873,0.38679 1.46253,0.89983 1.90588,1.65105c7.70792,13.06058 2.68516,13.78319 -7.17755,19.4033c-1.12083,0.63869 -2.42178,0.9062 -3.67396,1.21639c-14.88931,3.68834 -29.64155,2.19637 -44.77154,1.30663c-6.59052,-0.38756 -13.42427,-0.14278 -19.96572,-1.10212c-2.54152,-0.37273 -4.91107,-1.6164 -7.46061,-1.9296c-5.22315,-0.64164 -10.83826,0.04258 -16.1378,0.04258c-57,0 -114,0 -171,0c-11.74853,0 -23.71078,0.64813 -35.43587,-0.01086c-2.8915,-0.16251 -5.76136,-0.54209 -8.62496,-0.98847z" fill="#b3691b"/><path d="M20.75,250.5l-0.26125,-0.12219c5.87198,23.7441 5.26125,47.86032 5.26125,72.12219c0,0 0,8.75 -8.75,8.75c-2.91073,0 -4.8532,-0.96827 -6.14949,-2.26061c-1.60946,1.13074 -3.86422,1.77648 -6.9727,0.99936c-8.48875,-2.12219 -6.36656,-10.61093 -6.36656,-10.61093c1.21974,-4.46902 0.74943,-9.24534 0.73875,-13.87781c-0.01614,-6.99998 0,-14 0,-21c0,-23.33333 0,-46.66667 0,-70v-4c0,0 0,-8.75 8.75,-8.75c8.75,0 8.75,8.75 8.75,8.75c0,10.10749 0,20.96556 0,31.92393c5,2.05071 5,8.07607 5,8.07607z" fill="#1bb376"/><path d="M52,327.25c-2.30294,0 -3.99977,-0.60612 -5.25,-1.49931c0,2.24023 0,4.48045 0,6.72068c1.30118,2.34305 2.37356,6.27943 -1.56282,10.21581c-6.18718,6.18718 -12.37437,0 -12.37437,0l-3.56282,-7.18718c0,-16 0,-32 0,-48c0,-7.09277 0.63771,-14.21162 0.02981,-21.2783c-0.17378,-2.02013 -0.84826,-3.9781 -1,-6c-0.98206,-13.08535 -0.02981,-26.59615 -0.02981,-39.7217c0,0 0,-8.75 8.75,-8.75c8.75,0 8.75,8.75 8.75,8.75c0,12.62594 -1.02372,25.69977 -0.02981,38.2783c0.08257,1.04504 0.30334,2.07309 0.51994,3.10167c0.5433,-0.08446 1.12883,-0.12997 1.75988,-0.12997c8.75,0 8.75,8.75 8.75,8.75c0,10.76615 1.98656,21.23633 2,32c0.00127,1.01344 -0.99997,7.99423 0.53044,9.14637l1.46956,6.85363c0,0 0,8.75 -8.75,8.75z" fill="#1bb376"/><path d="M173.75,289.5c0,12.33333 0,24.66667 0,37v2c0,0 0,6.81933 -6.02016,8.41766c-0.1325,1.74121 -1.1356,8.33234 -8.72984,8.33234c-8.75,0 -8.75,-8.75 -8.75,-8.75v-2c0,-2.449 0.63151,-4.94254 0.15788,-7.34531c-0.34716,-1.76117 -1.69826,-3.23049 -2,-5c-0.21287,-1.24836 -0.15788,-14.58226 -0.15788,-15.65469c0,-1.7874 -0.00615,-16.31569 0.02547,-16.66719c0.83665,-9.29983 3.27869,-17.64089 3.99654,-26.95309c0.44526,-5.77611 -0.02201,-11.58648 -0.02201,-17.37972c0,0 0,-8.75 8.75,-8.75c8.75,0 8.75,8.75 8.75,8.75c0,3.41385 0.00349,18.28812 -0.02201,18.62028c-0.43445,5.65872 -1.5566,11.23875 -2.54305,16.83531c6.56506,1.31957 6.56506,8.54441 6.56506,8.54441z" fill="#1bb376"/><path d="M378.36298,308.90159c-0.00022,-1.89958 -2.88675,-2.72775 -3.01766,-4.58064c-0.27316,0.03294 -0.55295,0.03079 -0.83525,0.01534c0.29471,0.85543 0.57911,1.71422 0.84905,2.5777c1.07693,3.44483 1.82102,6.99311 2.83728,10.45456c0.08282,-2.83762 0.1669,-5.66659 0.16657,-8.46696zM373,286.75c4.90734,0.06347 8.93575,-0.40788 13.47511,2.92463c1.98362,1.45625 2.59011,4.18643 3.96808,6.22522c2.94204,4.35291 4.34719,4.6681 5.19382,10.19855c0.14351,0.93746 0.11298,11.79445 0.11298,13.40159c0,5.03238 0.66835,11.15136 -0.06556,16.0691c-0.37059,2.4832 -1.38013,4.82801 -2.07019,7.24201l-4.42706,4.87607c0,0 -5.33494,5.33494 -11.05091,1.14311c-1.23886,0.84941 -2.90242,1.41971 -5.13628,1.41971c-8.75,0 -8.75,-8.75 -8.75,-8.75v-1c0,-3.33333 -0.13016,-6.66921 0,-10c0.01324,-0.33873 0.35086,-0.67143 0.23407,-0.98966c-0.37638,-1.0256 -1.26205,-1.81282 -1.63885,-2.83826c-2.7874,-7.58572 -4.43445,-15.64487 -7.10806,-23.29319c-1.34067,-3.83521 -3.05852,-7.54695 -4.14656,-11.46134c-3.769,-13.55962 -4.33208,-26.48671 -4.3406,-40.41754c0,0 0,-8.75 8.75,-8.75c8.75,0 8.75,8.75 8.75,8.75c-0.00796,12.25296 0.29469,23.66441 3.6594,35.58246c0.07161,0.25363 0.1447,0.50679 0.21919,0.7595c2.1863,-1.09196 4.37141,-1.09196 4.37141,-1.09196z" fill="#1bb376"/><path d="M454,342.25c-8.75,0 -8.75,-8.75 -8.75,-8.75v-1c0,-9.58195 0.85095,-19.73273 0.02981,-29.2783c-0.17378,-2.02013 -0.82255,-3.98019 -1,-6c-0.3209,-3.6526 0.27429,-7.34361 0,-11c-0.35879,-4.78273 -1.22163,-5.4283 -2.68087,-10.27531c-1.34604,-4.47102 -2.00125,-8.5457 -4.78298,-12.45117c-1.03112,-1.44767 -2.28559,-2.72581 -3.33584,-4.15966c-0.22869,-0.31221 -0.11404,-0.94163 -0.48397,-1.05535c-1.09538,-0.33673 -2.28977,-0.09951 -3.43465,-0.14927c0,0 -8.63095,-1.43849 -7.19246,-10.06944c1.43849,-8.63095 10.06944,-7.19246 10.06944,-7.19246c2.85512,0.61691 5.93465,0.58121 8.56535,1.85073c2.22387,1.0732 3.82106,3.14898 5.51603,4.94465c6.5808,6.97177 9.21128,14.46006 11.88118,23.38917c1.34839,4.5095 2.90112,9.03651 3.31913,13.72469c0.32564,3.65218 -0.34457,7.34956 0,11c0.19054,2.01861 0.8364,3.97902 1,6c0.81401,10.05582 0.02981,20.63059 0.02981,30.7217v1c0,0 0,8.75 -8.75,8.75z" fill="#1bb376"/></g></g></svg>